<?xml version="1.0" encoding="UTF-8"?>
<!DOCTYPE svg
PUBLIC "-//W3C//DTD SVG 1.1//EN"
       "http://www.w3.org/Graphics/SVG/1.1/DTD/svg11.dtd">
<svg viewBox="86 164 999 613" width="913px" height="449px" xmlns="http://www.w3.org/2000/svg" version="1.1">
   <line x1="896" y1="229" x2="886" y2="229" style="stroke:#bbb;stroke-width:1;"/>
   <line x1="575" y1="231" x2="565" y2="231" style="stroke:#bbb;stroke-width:1;"/>
   <line x1="886" y1="229" x2="575" y2="231" style="stroke:#bbb;stroke-width:1;"/>
   <line x1="888.5" y1="229" x2="892.03553390593" y2="232.53553390593" style="stroke:#bbb;stroke-width:2;"/>
   <line x1="888.5" y1="229" x2="892.03553390593" y2="225.46446609407" style="stroke:#bbb;stroke-width:2;"/>
   <line x1="570" y1="231" x2="573.53553390593" y2="234.53553390593" style="stroke:#bbb;stroke-width:2;"/>
   <line x1="570" y1="231" x2="573.53553390593" y2="227.46446609407" style="stroke:#bbb;stroke-width:2;"/>
   <line x1="896" y1="249" x2="886" y2="249" style="stroke:#0bf;stroke-width:1;"/>
   <line x1="774" y1="419" x2="764" y2="419" style="stroke:#0bf;stroke-width:1;"/>
   <line x1="886" y1="249" x2="774" y2="419" style="stroke:#0bf;stroke-width:1;"/>
   <line x1="888.5" y1="249" x2="892.03553390593" y2="252.53553390593" style="stroke:#0bf;stroke-width:2;"/>
   <line x1="888.5" y1="249" x2="892.03553390593" y2="245.46446609407" style="stroke:#0bf;stroke-width:2;"/>
   <line x1="769" y1="419" x2="772.53553390593" y2="422.53553390593" style="stroke:#0bf;stroke-width:2;"/>
   <line x1="769" y1="419" x2="772.53553390593" y2="415.46446609407" style="stroke:#0bf;stroke-width:2;"/>
   <line x1="565" y1="251" x2="575" y2="251" style="stroke:#333;stroke-width:1;"/>
   <line x1="668" y1="419" x2="678" y2="419" style="stroke:#333;stroke-width:1;"/>
   <line x1="575" y1="251" x2="668" y2="419" style="stroke:#333;stroke-width:1;"/>
   <line x1="572.5" y1="251" x2="568.96446609407" y2="254.53553390593" style="stroke:#333;stroke-width:2;"/>
   <line x1="572.5" y1="251" x2="568.96446609407" y2="247.46446609407" style="stroke:#333;stroke-width:2;"/>
   <line x1="673" y1="419" x2="669.46446609407" y2="422.53553390593" style="stroke:#333;stroke-width:2;"/>
   <line x1="673" y1="419" x2="669.46446609407" y2="415.46446609407" style="stroke:#333;stroke-width:2;"/>
   <line x1="365" y1="257" x2="375" y2="257" style="stroke:#333;stroke-width:1;"/>
   <line x1="469" y1="231" x2="479" y2="231" style="stroke:#333;stroke-width:1;"/>
   <line x1="375" y1="257" x2="469" y2="231" style="stroke:#333;stroke-width:1;"/>
   <line x1="372.5" y1="257" x2="368.96446609407" y2="260.53553390593" style="stroke:#333;stroke-width:2;"/>
   <line x1="372.5" y1="257" x2="368.96446609407" y2="253.46446609407" style="stroke:#333;stroke-width:2;"/>
   <line x1="474" y1="231" x2="470.46446609407" y2="234.53553390593" style="stroke:#333;stroke-width:2;"/>
   <line x1="474" y1="231" x2="470.46446609407" y2="227.46446609407" style="stroke:#333;stroke-width:2;"/>
   <line x1="270" y1="277" x2="260" y2="277" style="stroke:#c00;stroke-width:1;"/>
   <line x1="197" y1="237" x2="187" y2="237" style="stroke:#c00;stroke-width:1;"/>
   <line x1="260" y1="277" x2="197" y2="237" style="stroke:#c00;stroke-width:1;"/>
   <line x1="262.5" y1="277" x2="266.03553390593" y2="280.53553390593" style="stroke:#c00;stroke-width:2;"/>
   <line x1="262.5" y1="277" x2="266.03553390593" y2="273.46446609407" style="stroke:#c00;stroke-width:2;"/>
   <line x1="192" y1="237" x2="195.53553390593" y2="240.53553390593" style="stroke:#c00;stroke-width:2;"/>
   <line x1="192" y1="237" x2="195.53553390593" y2="233.46446609407" style="stroke:#c00;stroke-width:2;"/>
   <line x1="764" y1="439" x2="774" y2="439" style="stroke:#bbb;stroke-width:1;"/>
   <line x1="863" y1="490" x2="873" y2="490" style="stroke:#bbb;stroke-width:1;"/>
   <line x1="774" y1="439" x2="863" y2="490" style="stroke:#bbb;stroke-width:1;"/>
   <line x1="771.5" y1="439" x2="767.96446609407" y2="442.53553390593" style="stroke:#bbb;stroke-width:2;"/>
   <line x1="771.5" y1="439" x2="767.96446609407" y2="435.46446609407" style="stroke:#bbb;stroke-width:2;"/>
   <line x1="868" y1="490" x2="864.46446609407" y2="493.53553390593" style="stroke:#bbb;stroke-width:2;"/>
   <line x1="868" y1="490" x2="864.46446609407" y2="486.46446609407" style="stroke:#bbb;stroke-width:2;"/>
   <rect width="88" height="20" x="896" y="179" style="fill:#007;stroke:black;"/>
   <text width="88" height="20" x="901" y="193" style="fill:#fff;" font-family="Arial" font-size="16px"> answer</text>
   <rect width="88" height="20" x="896" y="199" style="fill:#aea;stroke:black;"/>
   <text width="88" height="20" x="901" y="213" style="fill:black;" font-family="Arial" font-size="16px">id</text>
   <rect width="88" height="20" x="896" y="219" style="fill:none;stroke:black;"/>
   <text width="88" height="20" x="901" y="233" style="fill:black;" font-family="Arial" font-size="16px">question_id</text>
   <rect width="88" height="20" x="896" y="239" style="fill:none;stroke:black;"/>
   <text width="88" height="20" x="901" y="253" style="fill:black;" font-family="Arial" font-size="16px">user_id</text>
   <rect width="88" height="20" x="896" y="259" style="fill:none;stroke:black;"/>
   <text width="88" height="20" x="901" y="273" style="fill:black;" font-family="Arial" font-size="16px">title</text>
   <rect width="88" height="20" x="896" y="279" style="fill:none;stroke:black;"/>
   <text width="88" height="20" x="901" y="293" style="fill:black;" font-family="Arial" font-size="16px">content</text>
   <rect width="88" height="20" x="896" y="299" style="fill:none;stroke:black;"/>
   <text width="88" height="20" x="901" y="313" style="fill:black;" font-family="Arial" font-size="16px">status</text>
   <rect width="88" height="20" x="896" y="319" style="fill:none;stroke:black;"/>
   <text width="88" height="20" x="901" y="333" style="fill:black;" font-family="Arial" font-size="16px">created_at</text>
   <rect width="88" height="20" x="896" y="339" style="fill:none;stroke:black;"/>
   <text width="88" height="20" x="901" y="353" style="fill:black;" font-family="Arial" font-size="16px">updated_at</text>
   <rect width="142" height="20" x="156" y="538" style="fill:#007;stroke:black;"/>
   <text width="142" height="20" x="161" y="552" style="fill:#fff;" font-family="Arial" font-size="16px"> migration_versions</text>
   <rect width="142" height="20" x="156" y="558" style="fill:#aea;stroke:black;"/>
   <text width="142" height="20" x="161" y="572" style="fill:black;" font-family="Arial" font-size="16px">version</text>
   <rect width="142" height="20" x="156" y="578" style="fill:none;stroke:black;"/>
   <text width="142" height="20" x="161" y="592" style="fill:black;" font-family="Arial" font-size="16px">executed_at</text>
   <rect width="86" height="20" x="479" y="201" style="fill:#007;stroke:black;"/>
   <text width="86" height="20" x="484" y="215" style="fill:#fff;" font-family="Arial" font-size="16px"> question</text>
   <rect width="86" height="20" x="479" y="221" style="fill:#aea;stroke:black;"/>
   <text width="86" height="20" x="484" y="235" style="fill:black;" font-family="Arial" font-size="16px">id</text>
   <rect width="86" height="20" x="479" y="241" style="fill:none;stroke:black;"/>
   <text width="86" height="20" x="484" y="255" style="fill:black;" font-family="Arial" font-size="16px">user_id</text>
   <rect width="86" height="20" x="479" y="261" style="fill:none;stroke:black;"/>
   <text width="86" height="20" x="484" y="275" style="fill:black;" font-family="Arial" font-size="16px">title</text>
   <rect width="86" height="20" x="479" y="281" style="fill:none;stroke:black;"/>
   <text width="86" height="20" x="484" y="295" style="fill:black;" font-family="Arial" font-size="16px">content</text>
   <rect width="86" height="20" x="479" y="301" style="fill:none;stroke:black;"/>
   <text width="86" height="20" x="484" y="315" style="fill:black;" font-family="Arial" font-size="16px">status</text>
   <rect width="86" height="20" x="479" y="321" style="fill:none;stroke:black;"/>
   <text width="86" height="20" x="484" y="335" style="fill:black;" font-family="Arial" font-size="16px">created_at</text>
   <rect width="86" height="20" x="479" y="341" style="fill:none;stroke:black;"/>
   <text width="86" height="20" x="484" y="355" style="fill:black;" font-family="Arial" font-size="16px">updated_at</text>
   <rect width="95" height="20" x="270" y="227" style="fill:#007;stroke:black;"/>
   <text width="95" height="20" x="275" y="241" style="fill:#fff;" font-family="Arial" font-size="16px"> question_tag</text>
   <rect width="95" height="20" x="270" y="247" style="fill:#aea;stroke:black;"/>
   <text width="95" height="20" x="275" y="261" style="fill:black;" font-family="Arial" font-size="16px">question_id</text>
   <rect width="95" height="20" x="270" y="267" style="fill:#aea;stroke:black;"/>
   <text width="95" height="20" x="275" y="281" style="fill:black;" font-family="Arial" font-size="16px">tag_id</text>
   <rect width="86" height="20" x="873" y="460" style="fill:#007;stroke:black;"/>
   <text width="86" height="20" x="878" y="474" style="fill:#fff;" font-family="Arial" font-size="16px"> role</text>
   <rect width="86" height="20" x="873" y="480" style="fill:#aea;stroke:black;"/>
   <text width="86" height="20" x="878" y="494" style="fill:black;" font-family="Arial" font-size="16px">id</text>
   <rect width="86" height="20" x="873" y="500" style="fill:none;stroke:black;"/>
   <text width="86" height="20" x="878" y="514" style="fill:black;" font-family="Arial" font-size="16px">name</text>
   <rect width="86" height="20" x="873" y="520" style="fill:none;stroke:black;"/>
   <text width="86" height="20" x="878" y="534" style="fill:black;" font-family="Arial" font-size="16px">code</text>
   <rect width="86" height="20" x="873" y="540" style="fill:none;stroke:black;"/>
   <text width="86" height="20" x="878" y="554" style="fill:black;" font-family="Arial" font-size="16px">created_at</text>
   <rect width="86" height="20" x="873" y="560" style="fill:none;stroke:black;"/>
   <text width="86" height="20" x="878" y="574" style="fill:black;" font-family="Arial" font-size="16px">updated_at</text>
   <rect width="86" height="20" x="101" y="207" style="fill:#007;stroke:black;"/>
   <text width="86" height="20" x="106" y="221" style="fill:#fff;" font-family="Arial" font-size="16px"> tag</text>
   <rect width="86" height="20" x="101" y="227" style="fill:#aea;stroke:black;"/>
   <text width="86" height="20" x="106" y="241" style="fill:black;" font-family="Arial" font-size="16px">id</text>
   <rect width="86" height="20" x="101" y="247" style="fill:none;stroke:black;"/>
   <text width="86" height="20" x="106" y="261" style="fill:black;" font-family="Arial" font-size="16px">name</text>
   <rect width="86" height="20" x="101" y="267" style="fill:none;stroke:black;"/>
   <text width="86" height="20" x="106" y="281" style="fill:black;" font-family="Arial" font-size="16px">created_at</text>
   <rect width="86" height="20" x="101" y="287" style="fill:none;stroke:black;"/>
   <text width="86" height="20" x="106" y="301" style="fill:black;" font-family="Arial" font-size="16px">updated_at</text>
   <rect width="86" height="20" x="678" y="389" style="fill:#007;stroke:black;"/>
   <text width="86" height="20" x="683" y="403" style="fill:#fff;" font-family="Arial" font-size="16px"> user</text>
   <rect width="86" height="20" x="678" y="409" style="fill:#aea;stroke:black;"/>
   <text width="86" height="20" x="683" y="423" style="fill:black;" font-family="Arial" font-size="16px">id</text>
   <rect width="86" height="20" x="678" y="429" style="fill:none;stroke:black;"/>
   <text width="86" height="20" x="683" y="443" style="fill:black;" font-family="Arial" font-size="16px">role_id</text>
   <rect width="86" height="20" x="678" y="449" style="fill:none;stroke:black;"/>
   <text width="86" height="20" x="683" y="463" style="fill:black;" font-family="Arial" font-size="16px">firstname</text>
   <rect width="86" height="20" x="678" y="469" style="fill:none;stroke:black;"/>
   <text width="86" height="20" x="683" y="483" style="fill:black;" font-family="Arial" font-size="16px">lastname</text>
   <rect width="86" height="20" x="678" y="489" style="fill:none;stroke:black;"/>
   <text width="86" height="20" x="683" y="503" style="fill:black;" font-family="Arial" font-size="16px">email</text>
   <rect width="86" height="20" x="678" y="509" style="fill:none;stroke:black;"/>
   <text width="86" height="20" x="683" y="523" style="fill:black;" font-family="Arial" font-size="16px">password</text>
   <rect width="86" height="20" x="678" y="529" style="fill:none;stroke:black;"/>
   <text width="86" height="20" x="683" y="543" style="fill:black;" font-family="Arial" font-size="16px">image</text>
   <rect width="86" height="20" x="678" y="549" style="fill:none;stroke:black;"/>
   <text width="86" height="20" x="683" y="563" style="fill:black;" font-family="Arial" font-size="16px">created_at</text>
   <rect width="86" height="20" x="678" y="569" style="fill:none;stroke:black;"/>
   <text width="86" height="20" x="683" y="583" style="fill:black;" font-family="Arial" font-size="16px">updated_at</text>
</svg>
