<?xml version="1.0" standalone="no"?>
<!DOCTYPE svg PUBLIC "-//W3C//DTD SVG 1.1//EN"
"http://www.w3.org/Graphics/SVG/1.1/DTD/svg11.dtd">

<svg width="348" height="567" view_box="0 0 348 567"
xmlns="http://www.w3.org/2000/svg"
xmlns:link="http://www.w3.org/1999/xlink">\n\n<desc>Généré par Mocodo 2.3.7 le Tue, 09 Jul 2019 10:15:17</desc>

<rect id="frame" x="0" y="0" width="348" height="567" fill="#f7f7f7" stroke="none" stroke-width="0"/>

<!-- Association CREATES -->
<line x1="57" y1="312" x2="163" y2="312" stroke="#5aae61" stroke-width="2"/>
<text x="100" y="329.0" fill="#762a83" font-family="Verdana" font-size="12">1,1</text>
<line x1="269" y1="312" x2="163" y2="312" stroke="#5aae61" stroke-width="2"/>
<text x="204" y="329.0" fill="#762a83" font-family="Verdana" font-size="12">0,N</text>
<g id="association-CREATES">
	<path d="M 185 287 a 14 14 90 0 1 14 14 V 312 h -72 V 301 a 14 14 90 0 1 14 -14" fill="#a6dba0" stroke="#a6dba0" stroke-width="0"/>
	<path d="M 199 312.0 v 11 a 14 14 90 0 1 -14 14 H 141 a 14 14 90 0 1 -14 -14 V 312.0 H 72" fill="#d9f0d3" stroke="#d9f0d3" stroke-width="0"/>
	<rect x="127" y="287" width="72" height="50" fill="none" rx="14" stroke="#5aae61" stroke-width="2"/>
	<line x1="127" y1="312" x2="199" y2="312" stroke="#5aae61" stroke-width="1"/>
	<text x="134" y="304.7" fill="#000000" font-family="Verdana" font-size="12">CREATES</text>
</g>

<!-- Association IS -->
<line x1="269" y1="68" x2="269" y2="177" stroke="#5aae61" stroke-width="2"/>
<text x="274.0" y="144" fill="#762a83" font-family="Verdana" font-size="12">0,N</text>
<line x1="269" y1="312" x2="269" y2="177" stroke="#5aae61" stroke-width="2"/>
<text x="274.0" y="219" fill="#762a83" font-family="Verdana" font-size="12">1,1</text>
<g id="association-IS">
	<path d="M 269 152 a 14 14 90 0 1 14 14 V 177 h -28 V 166 a 14 14 90 0 1 14 -14" fill="#a6dba0" stroke="#a6dba0" stroke-width="0"/>
	<path d="M 283 177.0 v 11 a 14 14 90 0 1 -14 14 H 269 a 14 14 90 0 1 -14 -14 V 177.0 H 28" fill="#d9f0d3" stroke="#d9f0d3" stroke-width="0"/>
	<rect x="255" y="152" width="28" height="50" fill="none" rx="14" stroke="#5aae61" stroke-width="2"/>
	<line x1="255" y1="177" x2="283" y2="177" stroke="#5aae61" stroke-width="1"/>
	<text x="262" y="169.7" fill="#000000" font-family="Verdana" font-size="12">IS</text>
</g>

<!-- Association HAS -->
<line x1="57" y1="312" x2="57" y2="490" stroke="#5aae61" stroke-width="2"/>
<text x="62.0" y="397" fill="#762a83" font-family="Verdana" font-size="12">0,N</text>
<line x1="163" y1="490" x2="57" y2="490" stroke="#5aae61" stroke-width="2"/>
<text x="99" y="507.0" fill="#762a83" font-family="Verdana" font-size="12">1,1</text>
<g id="association-HAS">
	<path d="M 63 465 a 14 14 90 0 1 14 14 V 490 h -40 V 479 a 14 14 90 0 1 14 -14" fill="#a6dba0" stroke="#a6dba0" stroke-width="0"/>
	<path d="M 77 490.0 v 11 a 14 14 90 0 1 -14 14 H 51 a 14 14 90 0 1 -14 -14 V 490.0 H 40" fill="#d9f0d3" stroke="#d9f0d3" stroke-width="0"/>
	<rect x="37" y="465" width="40" height="50" fill="none" rx="14" stroke="#5aae61" stroke-width="2"/>
	<line x1="37" y1="490" x2="77" y2="490" stroke="#5aae61" stroke-width="1"/>
	<text x="44" y="482.7" fill="#000000" font-family="Verdana" font-size="12">HAS</text>
</g>

<!-- Association BELONGS TO -->
<line x1="57" y1="312" x2="57" y2="177" stroke="#5aae61" stroke-width="2"/>
<text x="62.0" y="236" fill="#762a83" font-family="Verdana" font-size="12">0,N</text>
<line x1="57" y1="68" x2="57" y2="177" stroke="#5aae61" stroke-width="2"/>
<text x="62.0" y="136" fill="#762a83" font-family="Verdana" font-size="12">0,N</text>
<g id="association-BELONGS TO">
	<path d="M 91 152 a 14 14 90 0 1 14 14 V 177 h -96 V 166 a 14 14 90 0 1 14 -14" fill="#a6dba0" stroke="#a6dba0" stroke-width="0"/>
	<path d="M 105 177.0 v 11 a 14 14 90 0 1 -14 14 H 23 a 14 14 90 0 1 -14 -14 V 177.0 H 96" fill="#d9f0d3" stroke="#d9f0d3" stroke-width="0"/>
	<rect x="9" y="152" width="96" height="50" fill="none" rx="14" stroke="#5aae61" stroke-width="2"/>
	<line x1="9" y1="177" x2="105" y2="177" stroke="#5aae61" stroke-width="1"/>
	<text x="16" y="169.7" fill="#000000" font-family="Verdana" font-size="12">BELONGS TO</text>
</g>

<!-- Association REPLIES -->
<line x1="163" y1="490" x2="269" y2="490" stroke="#5aae61" stroke-width="2"/>
<text x="206" y="507.0" fill="#762a83" font-family="Verdana" font-size="12">1,1</text>
<line x1="269" y1="312" x2="269" y2="490" stroke="#5aae61" stroke-width="2"/>
<text x="274.0" y="414" fill="#762a83" font-family="Verdana" font-size="12">0,N</text>
<g id="association-REPLIES">
	<path d="M 288 465 a 14 14 90 0 1 14 14 V 490 h -66 V 479 a 14 14 90 0 1 14 -14" fill="#a6dba0" stroke="#a6dba0" stroke-width="0"/>
	<path d="M 302 490.0 v 11 a 14 14 90 0 1 -14 14 H 250 a 14 14 90 0 1 -14 -14 V 490.0 H 66" fill="#d9f0d3" stroke="#d9f0d3" stroke-width="0"/>
	<rect x="236" y="465" width="66" height="50" fill="none" rx="14" stroke="#5aae61" stroke-width="2"/>
	<line x1="236" y1="490" x2="302" y2="490" stroke="#5aae61" stroke-width="1"/>
	<text x="243" y="482.7" fill="#000000" font-family="Verdana" font-size="12">REPLIES</text>
</g>

<!-- Entity ANSWER -->
<g id="entity-ANSWER">
	<g id="frame-ANSWER">
		<rect x="125" y="422" width="76" height="25" fill="#c2a5cf" stroke="#c2a5cf" stroke-width="0"/>
		<rect x="125" y="447.0" width="76" height="111" fill="#e7d4e8" stroke="#e7d4e8" stroke-width="0"/>
		<rect x="125" y="422" width="76" height="136" fill="none" stroke="#9970ab" stroke-width="2"/>
		<line x1="125" y1="447" x2="201" y2="447" stroke="#9970ab" stroke-width="1"/>
	</g>
	<text x="136" y="439.7" fill="#000000" font-family="Verdana" font-size="12">ANSWER</text>
	<text x="130" y="464.7" fill="#000000" font-family="Verdana" font-size="12">id</text>
	<line x1="130" y1="467" x2="142" y2="467" stroke="#000000" stroke-width="1"/>
	<text x="130" y="481.7" fill="#000000" font-family="Verdana" font-size="12">title</text>
	<text x="130" y="498.8" fill="#000000" font-family="Verdana" font-size="12">content</text>
	<text x="130" y="515.8" fill="#000000" font-family="Verdana" font-size="12">status</text>
	<text x="130" y="532.8" fill="#000000" font-family="Verdana" font-size="12">created at</text>
	<text x="130" y="549.8" fill="#000000" font-family="Verdana" font-size="12">updated at</text>
</g>

<!-- Entity QUESTION -->
<g id="entity-QUESTION">
	<g id="frame-QUESTION">
		<rect x="19" y="244" width="76" height="25" fill="#c2a5cf" stroke="#c2a5cf" stroke-width="0"/>
		<rect x="19" y="269.0" width="76" height="111" fill="#e7d4e8" stroke="#e7d4e8" stroke-width="0"/>
		<rect x="19" y="244" width="76" height="136" fill="none" stroke="#9970ab" stroke-width="2"/>
		<line x1="19" y1="269" x2="95" y2="269" stroke="#9970ab" stroke-width="1"/>
	</g>
	<text x="24" y="261.7" fill="#000000" font-family="Verdana" font-size="12">QUESTION</text>
	<text x="24" y="286.7" fill="#000000" font-family="Verdana" font-size="12">id</text>
	<line x1="24" y1="289" x2="36" y2="289" stroke="#000000" stroke-width="1"/>
	<text x="24" y="303.7" fill="#000000" font-family="Verdana" font-size="12">title</text>
	<text x="24" y="320.8" fill="#000000" font-family="Verdana" font-size="12">content</text>
	<text x="24" y="337.8" fill="#000000" font-family="Verdana" font-size="12">status</text>
	<text x="24" y="354.8" fill="#000000" font-family="Verdana" font-size="12">created at</text>
	<text x="24" y="371.8" fill="#000000" font-family="Verdana" font-size="12">updated at</text>
</g>

<!-- Entity TAG -->
<g id="entity-TAG">
	<g id="frame-TAG">
		<rect x="19" y="17" width="76" height="25" fill="#c2a5cf" stroke="#c2a5cf" stroke-width="0"/>
		<rect x="19" y="42.0" width="76" height="77" fill="#e7d4e8" stroke="#e7d4e8" stroke-width="0"/>
		<rect x="19" y="17" width="76" height="102" fill="none" stroke="#9970ab" stroke-width="2"/>
		<line x1="19" y1="42" x2="95" y2="42" stroke="#9970ab" stroke-width="1"/>
	</g>
	<text x="44" y="34.7" fill="#000000" font-family="Verdana" font-size="12">TAG</text>
	<text x="24" y="59.7" fill="#000000" font-family="Verdana" font-size="12">id</text>
	<line x1="24" y1="62" x2="36" y2="62" stroke="#000000" stroke-width="1"/>
	<text x="24" y="76.8" fill="#000000" font-family="Verdana" font-size="12">name</text>
	<text x="24" y="93.8" fill="#000000" font-family="Verdana" font-size="12">created at</text>
	<text x="24" y="110.8" fill="#000000" font-family="Verdana" font-size="12">updated at</text>
</g>

<!-- Entity ROLE -->
<g id="entity-ROLE">
	<g id="frame-ROLE">
		<rect x="231" y="9" width="76" height="25" fill="#c2a5cf" stroke="#c2a5cf" stroke-width="0"/>
		<rect x="231" y="34.0" width="76" height="93" fill="#e7d4e8" stroke="#e7d4e8" stroke-width="0"/>
		<rect x="231" y="9" width="76" height="118" fill="none" stroke="#9970ab" stroke-width="2"/>
		<line x1="231" y1="34" x2="307" y2="34" stroke="#9970ab" stroke-width="1"/>
	</g>
	<text x="252" y="26.7" fill="#000000" font-family="Verdana" font-size="12">ROLE</text>
	<text x="236" y="51.7" fill="#000000" font-family="Verdana" font-size="12">id</text>
	<line x1="236" y1="54" x2="248" y2="54" stroke="#000000" stroke-width="1"/>
	<text x="236" y="68.8" fill="#000000" font-family="Verdana" font-size="12">name</text>
	<text x="236" y="85.8" fill="#000000" font-family="Verdana" font-size="12">code</text>
	<text x="236" y="102.8" fill="#000000" font-family="Verdana" font-size="12">created at</text>
	<text x="236" y="119.8" fill="#000000" font-family="Verdana" font-size="12">updated at</text>
</g>

<!-- Entity USER -->
<g id="entity-USER">
	<g id="frame-USER">
		<rect x="231" y="227" width="76" height="25" fill="#c2a5cf" stroke="#c2a5cf" stroke-width="0"/>
		<rect x="231" y="252.0" width="76" height="145" fill="#e7d4e8" stroke="#e7d4e8" stroke-width="0"/>
		<rect x="231" y="227" width="76" height="170" fill="none" stroke="#9970ab" stroke-width="2"/>
		<line x1="231" y1="252" x2="307" y2="252" stroke="#9970ab" stroke-width="1"/>
	</g>
	<text x="252" y="244.7" fill="#000000" font-family="Verdana" font-size="12">USER</text>
	<text x="236" y="269.7" fill="#000000" font-family="Verdana" font-size="12">id</text>
	<line x1="236" y1="272" x2="248" y2="272" stroke="#000000" stroke-width="1"/>
	<text x="236" y="286.7" fill="#000000" font-family="Verdana" font-size="12">firstname</text>
	<text x="236" y="303.7" fill="#000000" font-family="Verdana" font-size="12">lastname</text>
	<text x="236" y="320.8" fill="#000000" font-family="Verdana" font-size="12">email</text>
	<text x="236" y="337.8" fill="#000000" font-family="Verdana" font-size="12">password</text>
	<text x="236" y="354.8" fill="#000000" font-family="Verdana" font-size="12">image</text>
	<text x="236" y="371.8" fill="#000000" font-family="Verdana" font-size="12">created at</text>
	<text x="236" y="388.8" fill="#000000" font-family="Verdana" font-size="12">updated at</text>
</g>
</svg>